<mxfile host="app.diagrams.net" modified="2023-12-12T05:34:29.822Z" agent="Mozilla/5.0 (Windows NT 10.0; Win64; x64) AppleWebKit/537.36 (KHTML, like Gecko) Chrome/120.0.0.0 Safari/537.36 Edg/120.0.0.0" version="22.1.7" etag="a7gAX0W7Nwi-lpp3XCsZ" type="github">
  <diagram name="페이지-1" id="UVYORtFzwfNtm1GfMEs2">
    <mxGraphModel>
      <root>
        <mxCell id="0" />
        <mxCell id="1" parent="0" />
      </root>
    </mxGraphModel>
  </diagram>
</mxfile>
